<?xml version="1.0" standalone="no"?>
<!DOCTYPE svg PUBLIC "-//W3C//DTD SVG 20010904//EN"
 "http://www.w3.org/TR/2001/REC-SVG-20010904/DTD/svg10.dtd">
<svg version="1.0" xmlns="http://www.w3.org/2000/svg"
 width="512.000000pt" height="512.000000pt" viewBox="0 0 512.000000 512.000000"
 preserveAspectRatio="xMidYMid meet">
<metadata>
Created by potrace 1.14, written by Peter Selinger 2001-2017
</metadata>
<g transform="translate(0.000000,512.000000) scale(0.100000,-0.100000)"
fill="#000000" stroke="none">
<path d="M3397 4423 c-1 0 -45 -4 -97 -7 -52 -4 -102 -8 -110 -11 -8 -2 -35
-6 -60 -9 -25 -3 -56 -8 -70 -11 -14 -3 -40 -8 -59 -11 -18 -3 -43 -8 -55 -10
-11 -2 -34 -7 -51 -10 -300 -54 -745 -181 -1340 -380 -154 -52 -291 -97 -305
-100 -174 -36 -275 -37 -375 -5 -35 12 -116 46 -182 77 -106 50 -275 114 -301
114 -11 0 -29 -49 -33 -90 -8 -82 23 -113 201 -198 222 -106 393 -141 575
-118 67 9 233 59 600 181 497 165 673 217 925 275 47 10 96 21 110 24 14 2 48
9 77 15 29 6 74 13 100 16 26 4 55 8 63 10 8 3 42 7 75 10 33 3 71 8 83 10
147 25 865 26 1012 1 14 -3 45 -7 70 -10 25 -3 121 -27 213 -53 l168 -47 -79
-80 c-44 -45 -98 -100 -121 -124 l-41 -42 -57 20 c-299 106 -315 109 -528 115
-316 10 -393 7 -541 -20 -191 -35 -315 -76 -679 -222 -1091 -440 -1201 -481
-1365 -508 -19 -3 -46 -7 -60 -10 -14 -2 -50 -7 -80 -10 -30 -3 -73 -7 -95
-10 -78 -10 -121 -14 -190 -20 -38 -4 -88 -9 -110 -11 -22 -2 -69 -6 -105 -10
-36 -3 -81 -7 -100 -9 -46 -4 -187 -17 -223 -20 -15 -2 -31 -5 -34 -9 -5 -5
24 -96 31 -96 1 0 29 -10 61 -21 115 -41 171 -49 335 -44 160 5 193 8 345 26
102 12 127 15 207 30 155 27 242 6 328 -81 38 -40 69 -62 96 -69 103 -27 408
-91 504 -106 19 -3 46 -7 60 -10 26 -5 71 -11 159 -21 30 -3 64 -8 75 -10 12
-2 97 -6 191 -10 185 -6 245 -10 253 -19 3 -3 6 -65 6 -138 0 -163 -5 -177
-142 -399 -202 -326 -364 -508 -559 -626 -97 -58 -281 -127 -481 -178 -166
-42 -267 -57 -392 -58 -146 -1 -182 9 -273 71 l-38 26 71 69 c120 116 134 160
78 244 -105 157 -389 121 -494 -63 -16 -29 -17 -38 -5 -85 27 -109 137 -307
209 -376 20 -19 62 -47 92 -61 52 -24 63 -26 230 -26 256 0 340 10 635 76 257
58 370 98 516 180 98 56 259 197 329 289 19 25 39 50 43 55 13 16 344 521 357
544 13 26 29 27 28 4 0 -16 5 -50 17 -113 2 -10 7 -40 11 -67 3 -26 8 -57 10
-68 5 -25 23 -148 30 -200 3 -22 7 -56 10 -75 3 -19 7 -57 10 -85 3 -27 7 -61
10 -75 2 -14 6 -47 9 -75 3 -27 8 -72 11 -100 11 -85 12 -87 29 -245 7 -62 16
-149 20 -195 16 -164 38 -213 106 -230 24 -6 31 2 98 101 60 90 78 128 110
228 101 317 223 568 428 881 82 125 107 161 215 304 26 35 48 68 48 73 0 20
-55 80 -94 103 -23 12 -108 44 -191 70 -231 73 -344 136 -434 243 -41 50 -41
51 -21 62 12 6 29 13 38 15 9 3 64 16 121 30 57 14 115 27 130 30 493 87 773
203 813 336 13 44 1 131 -25 191 -8 18 -29 69 -46 113 l-31 79 26 23 c15 13
30 23 34 23 3 0 21 13 39 29 24 21 33 39 37 72 8 67 34 115 117 220 53 67 85
120 107 173 16 42 30 82 30 89 0 6 -37 27 -83 46 -45 19 -112 46 -148 61 -74
31 -140 46 -244 55 -38 4 -86 8 -105 10 -19 2 -64 7 -100 10 -36 3 -81 8 -100
10 -34 5 -114 13 -201 20 -129 12 -515 25 -522 18z m473 -657 c47 -4 101 -9
120 -12 135 -21 199 -37 231 -59 41 -27 76 -90 83 -151 3 -22 13 -69 22 -105
45 -179 41 -219 -27 -251 -30 -14 -287 -83 -381 -102 -16 -3 -40 -8 -55 -12
-15 -3 -30 -7 -33 -9 -4 -2 -22 -7 -41 -10 -19 -3 -83 -18 -144 -32 -60 -14
-128 -29 -150 -34 -22 -4 -80 -17 -130 -29 -96 -22 -202 -33 -210 -20 -3 4 46
38 108 76 61 38 139 89 173 115 82 62 184 169 224 236 28 46 33 64 33 116 0
67 -18 117 -80 216 -19 29 -32 56 -29 59 3 3 41 7 83 9 43 3 83 6 88 7 6 2 15
2 20 0 6 -2 48 -5 95 -8z m-553 -61 c55 -23 92 -58 181 -171 12 -15 22 -33 22
-40 0 -17 -77 -122 -118 -160 -56 -53 -130 -98 -207 -129 -139 -55 -252 -23
-311 87 -11 22 -84 281 -84 300 0 9 321 113 384 125 11 2 22 5 24 7 7 8 73 -4
109 -19z m-780 -237 c5 -7 23 -44 39 -83 74 -180 117 -237 262 -346 l104 -79
-28 -10 c-65 -25 -156 -36 -289 -35 -123 2 -270 12 -285 20 -3 2 -34 6 -70 10
-36 4 -68 9 -72 11 -4 3 -26 7 -49 10 -23 3 -107 24 -188 46 -80 21 -150 40
-156 41 -5 2 -14 5 -20 8 -5 3 -36 14 -67 24 -32 11 -58 22 -58 25 0 3 166 74
368 159 202 85 394 167 427 182 72 33 70 32 82 17z m933 -1020 c45 -25 227
-124 330 -181 30 -16 74 -41 98 -54 l42 -25 -28 -52 c-16 -28 -44 -78 -62
-111 -18 -33 -41 -72 -52 -87 -10 -14 -18 -29 -18 -32 0 -4 -115 -205 -162
-281 -10 -16 -21 -37 -25 -45 -4 -8 -37 -66 -75 -129 -37 -62 -70 -122 -73
-132 -9 -26 -25 -24 -26 4 0 12 -2 31 -4 42 -2 11 -6 45 -9 75 -3 30 -8 66
-10 80 -2 14 -8 57 -12 95 -4 39 -8 77 -9 85 -1 8 -5 40 -9 70 -3 30 -8 66
-11 80 -2 14 -6 50 -9 80 -7 60 -15 129 -21 175 -2 17 -9 71 -15 120 -13 115
-18 149 -25 210 -4 28 -8 66 -10 87 l-4 36 77 -43 c42 -23 97 -54 122 -67z"/>
</g>
</svg>
